<svg width="1440" height="100" viewBox="0 0 1440 100" fill="none" xmlns="http://www.w3.org/2000/svg">
<g filter="url(#filter0_d_108_3)">
<rect width="1440" height="70" fill="#02A28F"/>
<path d="M164.208 48V27.552H156.144V22.8H178.104V27.552H170.04V48H164.208ZM192.618 28.344C194.154 28.344 195.522 28.656 196.722 29.28C197.946 29.88 198.906 30.816 199.602 32.088C200.298 33.336 200.646 34.944 200.646 36.912V48H195.03V37.776C195.03 36.216 194.682 35.064 193.986 34.32C193.314 33.576 192.354 33.204 191.106 33.204C190.218 33.204 189.414 33.396 188.694 33.78C187.998 34.14 187.446 34.704 187.038 35.472C186.654 36.24 186.462 37.224 186.462 38.424V48H180.846V21.288H186.462V33.996L185.202 32.376C185.898 31.08 186.894 30.084 188.19 29.388C189.486 28.692 190.962 28.344 192.618 28.344ZM215.489 48.288C213.281 48.288 211.337 47.856 209.657 46.992C208.001 46.128 206.717 44.952 205.805 43.464C204.893 41.952 204.437 40.236 204.437 38.316C204.437 36.372 204.881 34.656 205.769 33.168C206.681 31.656 207.917 30.48 209.477 29.64C211.037 28.776 212.801 28.344 214.769 28.344C216.665 28.344 218.369 28.752 219.881 29.568C221.417 30.36 222.629 31.512 223.517 33.024C224.405 34.512 224.849 36.3 224.849 38.388C224.849 38.604 224.837 38.856 224.813 39.144C224.789 39.408 224.765 39.66 224.741 39.9H209.009V36.624H221.789L219.629 37.596C219.629 36.588 219.425 35.712 219.017 34.968C218.609 34.224 218.045 33.648 217.325 33.24C216.605 32.808 215.765 32.592 214.805 32.592C213.845 32.592 212.993 32.808 212.249 33.24C211.529 33.648 210.965 34.236 210.557 35.004C210.149 35.748 209.945 36.636 209.945 37.668V38.532C209.945 39.588 210.173 40.524 210.629 41.34C211.109 42.132 211.769 42.744 212.609 43.176C213.473 43.584 214.481 43.788 215.633 43.788C216.665 43.788 217.565 43.632 218.333 43.32C219.125 43.008 219.845 42.54 220.493 41.916L223.481 45.156C222.593 46.164 221.477 46.944 220.133 47.496C218.789 48.024 217.241 48.288 215.489 48.288ZM239.179 48V22.8H250.627C253.363 22.8 255.775 23.328 257.863 24.384C259.951 25.416 261.583 26.868 262.759 28.74C263.935 30.612 264.523 32.832 264.523 35.4C264.523 37.944 263.935 40.164 262.759 42.06C261.583 43.932 259.951 45.396 257.863 46.452C255.775 47.484 253.363 48 250.627 48H239.179ZM245.011 43.212H250.339C252.019 43.212 253.471 42.9 254.695 42.276C255.943 41.628 256.903 40.716 257.575 39.54C258.271 38.364 258.619 36.984 258.619 35.4C258.619 33.792 258.271 32.412 257.575 31.26C256.903 30.084 255.943 29.184 254.695 28.56C253.471 27.912 252.019 27.588 250.339 27.588H245.011V43.212ZM278.138 48.288C275.93 48.288 273.986 47.856 272.306 46.992C270.65 46.128 269.366 44.952 268.454 43.464C267.542 41.952 267.086 40.236 267.086 38.316C267.086 36.372 267.53 34.656 268.418 33.168C269.33 31.656 270.566 30.48 272.126 29.64C273.686 28.776 275.45 28.344 277.418 28.344C279.314 28.344 281.018 28.752 282.53 29.568C284.066 30.36 285.278 31.512 286.166 33.024C287.054 34.512 287.498 36.3 287.498 38.388C287.498 38.604 287.486 38.856 287.462 39.144C287.438 39.408 287.414 39.66 287.39 39.9H271.658V36.624H284.438L282.278 37.596C282.278 36.588 282.074 35.712 281.666 34.968C281.258 34.224 280.694 33.648 279.974 33.24C279.254 32.808 278.414 32.592 277.454 32.592C276.494 32.592 275.642 32.808 274.898 33.24C274.178 33.648 273.614 34.236 273.206 35.004C272.798 35.748 272.594 36.636 272.594 37.668V38.532C272.594 39.588 272.822 40.524 273.278 41.34C273.758 42.132 274.418 42.744 275.258 43.176C276.122 43.584 277.13 43.788 278.282 43.788C279.314 43.788 280.214 43.632 280.982 43.32C281.774 43.008 282.494 42.54 283.142 41.916L286.13 45.156C285.242 46.164 284.126 46.944 282.782 47.496C281.438 48.024 279.89 48.288 278.138 48.288ZM296.141 48L288.005 28.632H293.801L300.569 45.3H297.689L304.709 28.632H310.109L301.937 48H296.141ZM322.992 48V22.8H327.816L342.684 40.944H340.344V22.8H346.104V48H341.316L326.412 29.856H328.752V48H322.992ZM361.282 48.288C359.074 48.288 357.13 47.856 355.45 46.992C353.794 46.128 352.51 44.952 351.598 43.464C350.686 41.952 350.23 40.236 350.23 38.316C350.23 36.372 350.674 34.656 351.562 33.168C352.474 31.656 353.71 30.48 355.27 29.64C356.83 28.776 358.594 28.344 360.562 28.344C362.458 28.344 364.162 28.752 365.674 29.568C367.21 30.36 368.422 31.512 369.31 33.024C370.198 34.512 370.642 36.3 370.642 38.388C370.642 38.604 370.63 38.856 370.606 39.144C370.582 39.408 370.558 39.66 370.534 39.9H354.802V36.624H367.582L365.422 37.596C365.422 36.588 365.218 35.712 364.81 34.968C364.402 34.224 363.838 33.648 363.118 33.24C362.398 32.808 361.558 32.592 360.598 32.592C359.638 32.592 358.786 32.808 358.042 33.24C357.322 33.648 356.758 34.236 356.35 35.004C355.942 35.748 355.738 36.636 355.738 37.668V38.532C355.738 39.588 355.966 40.524 356.422 41.34C356.902 42.132 357.562 42.744 358.402 43.176C359.266 43.584 360.274 43.788 361.426 43.788C362.458 43.788 363.358 43.632 364.126 43.32C364.918 43.008 365.638 42.54 366.286 41.916L369.274 45.156C368.386 46.164 367.27 46.944 365.926 47.496C364.582 48.024 363.034 48.288 361.282 48.288ZM378.458 48L371.474 28.632H376.766L382.562 45.3H380.042L386.09 28.632H390.842L396.71 45.3H394.19L400.166 28.632H405.134L398.114 48H392.678L387.53 33.708H389.186L383.858 48H378.458ZM413.979 48.288C412.323 48.288 410.727 48.096 409.191 47.712C407.679 47.304 406.479 46.8 405.591 46.2L407.463 42.168C408.351 42.72 409.395 43.176 410.595 43.536C411.819 43.872 413.019 44.04 414.195 44.04C415.491 44.04 416.403 43.884 416.931 43.572C417.483 43.26 417.759 42.828 417.759 42.276C417.759 41.82 417.543 41.484 417.111 41.268C416.703 41.028 416.151 40.848 415.455 40.728C414.759 40.608 413.991 40.488 413.151 40.368C412.335 40.248 411.507 40.092 410.667 39.9C409.827 39.684 409.059 39.372 408.363 38.964C407.667 38.556 407.103 38.004 406.671 37.308C406.263 36.612 406.059 35.712 406.059 34.608C406.059 33.384 406.407 32.304 407.103 31.368C407.823 30.432 408.855 29.7 410.199 29.172C411.543 28.62 413.151 28.344 415.023 28.344C416.343 28.344 417.687 28.488 419.055 28.776C420.423 29.064 421.563 29.484 422.475 30.036L420.603 34.032C419.667 33.48 418.719 33.108 417.759 32.916C416.823 32.7 415.911 32.592 415.023 32.592C413.775 32.592 412.863 32.76 412.287 33.096C411.711 33.432 411.423 33.864 411.423 34.392C411.423 34.872 411.627 35.232 412.035 35.472C412.467 35.712 413.031 35.904 413.727 36.048C414.423 36.192 415.179 36.324 415.995 36.444C416.835 36.54 417.675 36.696 418.515 36.912C419.355 37.128 420.111 37.44 420.783 37.848C421.479 38.232 422.043 38.772 422.475 39.468C422.907 40.14 423.123 41.028 423.123 42.132C423.123 43.332 422.763 44.4 422.043 45.336C421.323 46.248 420.279 46.968 418.911 47.496C417.567 48.024 415.923 48.288 413.979 48.288Z" fill="white"/>
</g>
<defs>
<filter id="filter0_d_108_3" x="-20" y="-10" width="1480" height="110" filterUnits="userSpaceOnUse" color-interpolation-filters="sRGB">
<feFlood flood-opacity="0" result="BackgroundImageFix"/>
<feColorMatrix in="SourceAlpha" type="matrix" values="0 0 0 0 0 0 0 0 0 0 0 0 0 0 0 0 0 0 127 0" result="hardAlpha"/>
<feOffset dy="10"/>
<feGaussianBlur stdDeviation="10"/>
<feComposite in2="hardAlpha" operator="out"/>
<feColorMatrix type="matrix" values="0 0 0 0 0 0 0 0 0 0 0 0 0 0 0 0 0 0 0.1 0"/>
<feBlend mode="normal" in2="BackgroundImageFix" result="effect1_dropShadow_108_3"/>
<feBlend mode="normal" in="SourceGraphic" in2="effect1_dropShadow_108_3" result="shape"/>
</filter>
</defs>
</svg>

