<svg width="1440" height="48" viewBox="0 0 1440 48" fill="none" xmlns="http://www.w3.org/2000/svg">
<rect width="1441" height="48" transform="translate(-1)" fill="#02A28F"/>
<path d="M630.852 29.64C630.105 29.64 629.41 29.5187 628.766 29.276C628.131 29.024 627.576 28.674 627.1 28.226C626.633 27.7687 626.269 27.232 626.008 26.616C625.747 26 625.616 25.328 625.616 24.6C625.616 23.872 625.747 23.2 626.008 22.584C626.269 21.968 626.638 21.436 627.114 20.988C627.59 20.5307 628.145 20.1807 628.78 19.938C629.415 19.686 630.11 19.56 630.866 19.56C631.669 19.56 632.401 19.7 633.064 19.98C633.727 20.2507 634.287 20.6567 634.744 21.198L633.568 22.304C633.213 21.9213 632.817 21.6367 632.378 21.45C631.939 21.254 631.463 21.156 630.95 21.156C630.437 21.156 629.965 21.24 629.536 21.408C629.116 21.576 628.747 21.814 628.43 22.122C628.122 22.43 627.879 22.794 627.702 23.214C627.534 23.634 627.45 24.096 627.45 24.6C627.45 25.104 627.534 25.566 627.702 25.986C627.879 26.406 628.122 26.77 628.43 27.078C628.747 27.386 629.116 27.624 629.536 27.792C629.965 27.96 630.437 28.044 630.95 28.044C631.463 28.044 631.939 27.9507 632.378 27.764C632.817 27.568 633.213 27.274 633.568 26.882L634.744 28.002C634.287 28.534 633.727 28.94 633.064 29.22C632.401 29.5 631.664 29.64 630.852 29.64ZM639.393 29.598C638.627 29.598 637.946 29.4347 637.349 29.108C636.751 28.772 636.28 28.3147 635.935 27.736C635.589 27.1573 635.417 26.4993 635.417 25.762C635.417 25.0153 635.589 24.3573 635.935 23.788C636.28 23.2093 636.751 22.7567 637.349 22.43C637.946 22.1033 638.627 21.94 639.393 21.94C640.167 21.94 640.853 22.1033 641.451 22.43C642.057 22.7567 642.529 23.2047 642.865 23.774C643.21 24.3433 643.383 25.006 643.383 25.762C643.383 26.4993 643.21 27.1573 642.865 27.736C642.529 28.3147 642.057 28.772 641.451 29.108C640.853 29.4347 640.167 29.598 639.393 29.598ZM639.393 28.1C639.822 28.1 640.205 28.0067 640.541 27.82C640.877 27.6333 641.138 27.3627 641.325 27.008C641.521 26.6533 641.619 26.238 641.619 25.762C641.619 25.2767 641.521 24.8613 641.325 24.516C641.138 24.1613 640.877 23.8907 640.541 23.704C640.205 23.5173 639.827 23.424 639.407 23.424C638.977 23.424 638.595 23.5173 638.259 23.704C637.932 23.8907 637.671 24.1613 637.475 24.516C637.279 24.8613 637.181 25.2767 637.181 25.762C637.181 26.238 637.279 26.6533 637.475 27.008C637.671 27.3627 637.932 27.6333 638.259 27.82C638.595 28.0067 638.973 28.1 639.393 28.1ZM649.2 29.598C648.594 29.598 648.038 29.458 647.534 29.178C647.04 28.898 646.643 28.478 646.344 27.918C646.055 27.3487 645.91 26.63 645.91 25.762C645.91 24.8847 646.05 24.166 646.33 23.606C646.62 23.046 647.012 22.6307 647.506 22.36C648.001 22.08 648.566 21.94 649.2 21.94C649.938 21.94 650.586 22.0987 651.146 22.416C651.716 22.7333 652.164 23.1767 652.49 23.746C652.826 24.3153 652.994 24.9873 652.994 25.762C652.994 26.5367 652.826 27.2133 652.49 27.792C652.164 28.3613 651.716 28.8047 651.146 29.122C650.586 29.4393 649.938 29.598 649.2 29.598ZM645.056 32.216V22.024H646.722V23.788L646.666 25.776L646.806 27.764V32.216H645.056ZM649.004 28.1C649.424 28.1 649.798 28.0067 650.124 27.82C650.46 27.6333 650.726 27.3627 650.922 27.008C651.118 26.6533 651.216 26.238 651.216 25.762C651.216 25.2767 651.118 24.8613 650.922 24.516C650.726 24.1613 650.46 23.8907 650.124 23.704C649.798 23.5173 649.424 23.424 649.004 23.424C648.584 23.424 648.206 23.5173 647.87 23.704C647.534 23.8907 647.268 24.1613 647.072 24.516C646.876 24.8613 646.778 25.2767 646.778 25.762C646.778 26.238 646.876 26.6533 647.072 27.008C647.268 27.3627 647.534 27.6333 647.87 27.82C648.206 28.0067 648.584 28.1 649.004 28.1ZM655.065 32.314C654.701 32.314 654.337 32.2533 653.973 32.132C653.609 32.0107 653.305 31.8427 653.063 31.628L653.763 30.34C653.94 30.4987 654.141 30.6247 654.365 30.718C654.589 30.8113 654.817 30.858 655.051 30.858C655.368 30.858 655.625 30.7787 655.821 30.62C656.017 30.4613 656.199 30.1953 656.367 29.822L656.801 28.842L656.941 28.632L659.769 22.024H661.449L657.949 30.102C657.715 30.662 657.454 31.1053 657.165 31.432C656.885 31.7587 656.567 31.9873 656.213 32.118C655.867 32.2487 655.485 32.314 655.065 32.314ZM656.605 29.766L653.231 22.024H655.051L657.795 28.478L656.605 29.766ZM662.543 29.5V22.024H664.209V24.082L664.013 23.48C664.237 22.976 664.587 22.5933 665.063 22.332C665.548 22.0707 666.15 21.94 666.869 21.94V23.606C666.794 23.5873 666.724 23.578 666.659 23.578C666.593 23.5687 666.528 23.564 666.463 23.564C665.8 23.564 665.273 23.76 664.881 24.152C664.489 24.5347 664.293 25.1087 664.293 25.874V29.5H662.543ZM668.353 29.5V22.024H670.103V29.5H668.353ZM669.235 20.792C668.908 20.792 668.638 20.6893 668.423 20.484C668.218 20.2787 668.115 20.0313 668.115 19.742C668.115 19.4433 668.218 19.196 668.423 19C668.638 18.7947 668.908 18.692 669.235 18.692C669.562 18.692 669.828 18.79 670.033 18.986C670.248 19.1727 670.355 19.4107 670.355 19.7C670.355 20.008 670.252 20.2693 670.047 20.484C669.842 20.6893 669.571 20.792 669.235 20.792ZM675.788 32.314C675.097 32.314 674.421 32.2207 673.758 32.034C673.105 31.8567 672.568 31.5953 672.148 31.25L672.932 29.934C673.259 30.2047 673.669 30.4193 674.164 30.578C674.668 30.746 675.177 30.83 675.69 30.83C676.511 30.83 677.113 30.6387 677.496 30.256C677.879 29.8827 678.07 29.318 678.07 28.562V27.232L678.21 25.538L678.154 23.844V22.024H679.82V28.366C679.82 29.7193 679.475 30.7133 678.784 31.348C678.093 31.992 677.095 32.314 675.788 32.314ZM675.564 29.164C674.855 29.164 674.211 29.0147 673.632 28.716C673.063 28.408 672.61 27.9833 672.274 27.442C671.947 26.9007 671.784 26.266 671.784 25.538C671.784 24.8193 671.947 24.1893 672.274 23.648C672.61 23.1067 673.063 22.6867 673.632 22.388C674.211 22.0893 674.855 21.94 675.564 21.94C676.199 21.94 676.768 22.066 677.272 22.318C677.776 22.57 678.177 22.962 678.476 23.494C678.784 24.026 678.938 24.7073 678.938 25.538C678.938 26.3687 678.784 27.0547 678.476 27.596C678.177 28.128 677.776 28.5247 677.272 28.786C676.768 29.038 676.199 29.164 675.564 29.164ZM675.83 27.68C676.269 27.68 676.661 27.5913 677.006 27.414C677.351 27.2273 677.617 26.9753 677.804 26.658C678 26.3313 678.098 25.958 678.098 25.538C678.098 25.118 678 24.7493 677.804 24.432C677.617 24.1053 677.351 23.858 677.006 23.69C676.661 23.5127 676.269 23.424 675.83 23.424C675.391 23.424 674.995 23.5127 674.64 23.69C674.295 23.858 674.024 24.1053 673.828 24.432C673.641 24.7493 673.548 25.118 673.548 25.538C673.548 25.958 673.641 26.3313 673.828 26.658C674.024 26.9753 674.295 27.2273 674.64 27.414C674.995 27.5913 675.391 27.68 675.83 27.68ZM686.363 21.94C686.96 21.94 687.492 22.0567 687.959 22.29C688.435 22.5233 688.808 22.8827 689.079 23.368C689.349 23.844 689.485 24.46 689.485 25.216V29.5H687.735V25.44C687.735 24.7773 687.576 24.2827 687.259 23.956C686.951 23.6293 686.517 23.466 685.957 23.466C685.546 23.466 685.182 23.55 684.865 23.718C684.547 23.886 684.3 24.138 684.123 24.474C683.955 24.8007 683.871 25.216 683.871 25.72V29.5H682.121V19.112H683.871V24.04L683.493 23.424C683.754 22.948 684.132 22.584 684.627 22.332C685.131 22.0707 685.709 21.94 686.363 21.94ZM694.519 29.598C693.697 29.598 693.063 29.388 692.615 28.968C692.167 28.5387 691.943 27.9087 691.943 27.078V20.372H693.693V27.036C693.693 27.3907 693.781 27.666 693.959 27.862C694.145 28.058 694.402 28.156 694.729 28.156C695.121 28.156 695.447 28.0533 695.709 27.848L696.199 29.094C695.993 29.262 695.741 29.388 695.443 29.472C695.144 29.556 694.836 29.598 694.519 29.598ZM690.711 23.48V22.08H695.695V23.48H690.711ZM703.742 32.356C702.753 32.356 701.852 32.1973 701.04 31.88C700.228 31.5627 699.528 31.1147 698.94 30.536C698.352 29.9573 697.9 29.2807 697.582 28.506C697.265 27.722 697.106 26.868 697.106 25.944C697.106 25.02 697.265 24.1707 697.582 23.396C697.9 22.6213 698.352 21.9493 698.94 21.38C699.538 20.8107 700.247 20.3673 701.068 20.05C701.89 19.7327 702.8 19.574 703.798 19.574C704.76 19.574 705.642 19.728 706.444 20.036C707.247 20.3347 707.938 20.7593 708.516 21.31C709.104 21.8513 709.557 22.4953 709.874 23.242C710.201 23.9887 710.364 24.81 710.364 25.706C710.364 26.5087 710.257 27.204 710.042 27.792C709.828 28.3707 709.52 28.814 709.118 29.122C708.726 29.43 708.246 29.584 707.676 29.584C707.098 29.584 706.636 29.4113 706.29 29.066C705.954 28.7207 705.786 28.2213 705.786 27.568V26.77L705.842 25.972L705.716 24.152V22.556H707.27V27.316C707.27 27.6707 707.34 27.9227 707.48 28.072C707.63 28.212 707.802 28.282 707.998 28.282C708.25 28.282 708.465 28.184 708.642 27.988C708.82 27.792 708.95 27.5027 709.034 27.12C709.128 26.7373 709.174 26.2753 709.174 25.734C709.174 24.9873 709.044 24.306 708.782 23.69C708.53 23.074 708.162 22.5467 707.676 22.108C707.2 21.66 706.631 21.3193 705.968 21.086C705.315 20.8433 704.592 20.722 703.798 20.722C702.986 20.722 702.249 20.8527 701.586 21.114C700.924 21.366 700.354 21.7253 699.878 22.192C699.402 22.6587 699.034 23.214 698.772 23.858C698.52 24.4927 698.394 25.188 698.394 25.944C698.394 26.7187 698.52 27.428 698.772 28.072C699.024 28.716 699.384 29.2667 699.85 29.724C700.326 30.1907 700.891 30.55 701.544 30.802C702.198 31.0633 702.93 31.194 703.742 31.194C704.172 31.194 704.624 31.1427 705.1 31.04C705.576 30.9467 706.029 30.7927 706.458 30.578L706.836 31.698C706.407 31.9127 705.912 32.076 705.352 32.188C704.792 32.3 704.256 32.356 703.742 32.356ZM703.378 29.584C702.734 29.584 702.16 29.4347 701.656 29.136C701.152 28.828 700.751 28.408 700.452 27.876C700.163 27.3347 700.018 26.714 700.018 26.014C700.018 25.3233 700.163 24.712 700.452 24.18C700.742 23.6387 701.138 23.2187 701.642 22.92C702.156 22.6213 702.734 22.472 703.378 22.472C704.004 22.472 704.55 22.612 705.016 22.892C705.483 23.1627 705.847 23.5593 706.108 24.082C706.37 24.6047 706.5 25.2487 706.5 26.014C706.5 26.7793 706.374 27.428 706.122 27.96C705.87 28.492 705.511 28.898 705.044 29.178C704.578 29.4487 704.022 29.584 703.378 29.584ZM703.672 28.226C704.074 28.226 704.428 28.142 704.736 27.974C705.044 27.7967 705.287 27.54 705.464 27.204C705.651 26.868 705.744 26.4713 705.744 26.014C705.744 25.5473 705.651 25.1553 705.464 24.838C705.287 24.5113 705.044 24.264 704.736 24.096C704.428 23.9187 704.074 23.83 703.672 23.83C703.262 23.83 702.898 23.9187 702.58 24.096C702.272 24.2733 702.03 24.5253 701.852 24.852C701.684 25.1787 701.6 25.566 701.6 26.014C701.6 26.4713 701.684 26.8633 701.852 27.19C702.03 27.5167 702.272 27.7733 702.58 27.96C702.898 28.1373 703.262 28.226 703.672 28.226ZM714.136 29.5V21.24H710.888V19.7H719.204V21.24H715.956V29.5H714.136ZM724.644 21.94C725.241 21.94 725.773 22.0567 726.24 22.29C726.716 22.5233 727.089 22.8827 727.36 23.368C727.631 23.844 727.766 24.46 727.766 25.216V29.5H726.016V25.44C726.016 24.7773 725.857 24.2827 725.54 23.956C725.232 23.6293 724.798 23.466 724.238 23.466C723.827 23.466 723.463 23.55 723.146 23.718C722.829 23.886 722.581 24.138 722.404 24.474C722.236 24.8007 722.152 25.216 722.152 25.72V29.5H720.402V19.112H722.152V24.04L721.774 23.424C722.035 22.948 722.413 22.584 722.908 22.332C723.412 22.0707 723.991 21.94 724.644 21.94ZM733.514 29.598C732.683 29.598 731.955 29.4347 731.33 29.108C730.714 28.772 730.233 28.3147 729.888 27.736C729.552 27.1573 729.384 26.4993 729.384 25.762C729.384 25.0153 729.547 24.3573 729.874 23.788C730.21 23.2093 730.667 22.7567 731.246 22.43C731.834 22.1033 732.501 21.94 733.248 21.94C733.976 21.94 734.624 22.0987 735.194 22.416C735.763 22.7333 736.211 23.1813 736.538 23.76C736.864 24.3387 737.028 25.02 737.028 25.804C737.028 25.8787 737.023 25.9627 737.014 26.056C737.014 26.1493 737.009 26.238 737 26.322H730.77V25.16H736.076L735.39 25.524C735.399 25.0947 735.31 24.7167 735.124 24.39C734.937 24.0633 734.68 23.8067 734.354 23.62C734.036 23.4333 733.668 23.34 733.248 23.34C732.818 23.34 732.44 23.4333 732.114 23.62C731.796 23.8067 731.544 24.068 731.358 24.404C731.18 24.7307 731.092 25.118 731.092 25.566V25.846C731.092 26.294 731.194 26.6907 731.4 27.036C731.605 27.3813 731.894 27.6473 732.268 27.834C732.641 28.0207 733.07 28.114 733.556 28.114C733.976 28.114 734.354 28.0487 734.69 27.918C735.026 27.7873 735.324 27.582 735.586 27.302L736.524 28.38C736.188 28.772 735.763 29.0753 735.25 29.29C734.746 29.4953 734.167 29.598 733.514 29.598ZM742.746 29.5V19.7H747.03C748.094 19.7 749.027 19.9053 749.83 20.316C750.632 20.7267 751.258 21.296 751.706 22.024C752.154 22.752 752.378 23.6107 752.378 24.6C752.378 25.58 752.154 26.4387 751.706 27.176C751.258 27.904 750.632 28.4733 749.83 28.884C749.027 29.2947 748.094 29.5 747.03 29.5H742.746ZM744.566 27.96H746.946C747.683 27.96 748.318 27.82 748.85 27.54C749.391 27.26 749.806 26.868 750.096 26.364C750.394 25.86 750.544 25.272 750.544 24.6C750.544 23.9187 750.394 23.3307 750.096 22.836C749.806 22.332 749.391 21.94 748.85 21.66C748.318 21.38 747.683 21.24 746.946 21.24H744.566V27.96ZM757.658 29.598C756.827 29.598 756.099 29.4347 755.474 29.108C754.858 28.772 754.377 28.3147 754.032 27.736C753.696 27.1573 753.528 26.4993 753.528 25.762C753.528 25.0153 753.691 24.3573 754.018 23.788C754.354 23.2093 754.811 22.7567 755.39 22.43C755.978 22.1033 756.645 21.94 757.392 21.94C758.12 21.94 758.769 22.0987 759.338 22.416C759.907 22.7333 760.355 23.1813 760.682 23.76C761.009 24.3387 761.172 25.02 761.172 25.804C761.172 25.8787 761.167 25.9627 761.158 26.056C761.158 26.1493 761.153 26.238 761.144 26.322H754.914V25.16H760.22L759.534 25.524C759.543 25.0947 759.455 24.7167 759.268 24.39C759.081 24.0633 758.825 23.8067 758.498 23.62C758.181 23.4333 757.812 23.34 757.392 23.34C756.963 23.34 756.585 23.4333 756.258 23.62C755.941 23.8067 755.689 24.068 755.502 24.404C755.325 24.7307 755.236 25.118 755.236 25.566V25.846C755.236 26.294 755.339 26.6907 755.544 27.036C755.749 27.3813 756.039 27.6473 756.412 27.834C756.785 28.0207 757.215 28.114 757.7 28.114C758.12 28.114 758.498 28.0487 758.834 27.918C759.17 27.7873 759.469 27.582 759.73 27.302L760.668 28.38C760.332 28.772 759.907 29.0753 759.394 29.29C758.89 29.4953 758.311 29.598 757.658 29.598ZM764.704 29.5L761.498 22.024H763.318L766.076 28.618H765.18L768.036 22.024H769.716L766.51 29.5H764.704ZM774.847 29.5V19.7H776.345L782.491 27.246H781.749V19.7H783.555V29.5H782.057L775.911 21.954H776.653V29.5H774.847ZM789.527 29.598C788.697 29.598 787.969 29.4347 787.343 29.108C786.727 28.772 786.247 28.3147 785.901 27.736C785.565 27.1573 785.397 26.4993 785.397 25.762C785.397 25.0153 785.561 24.3573 785.887 23.788C786.223 23.2093 786.681 22.7567 787.259 22.43C787.847 22.1033 788.515 21.94 789.261 21.94C789.989 21.94 790.638 22.0987 791.207 22.416C791.777 22.7333 792.225 23.1813 792.551 23.76C792.878 24.3387 793.041 25.02 793.041 25.804C793.041 25.8787 793.037 25.9627 793.027 26.056C793.027 26.1493 793.023 26.238 793.013 26.322H786.783V25.16H792.089L791.403 25.524C791.413 25.0947 791.324 24.7167 791.137 24.39C790.951 24.0633 790.694 23.8067 790.367 23.62C790.05 23.4333 789.681 23.34 789.261 23.34C788.832 23.34 788.454 23.4333 788.127 23.62C787.81 23.8067 787.558 24.068 787.371 24.404C787.194 24.7307 787.105 25.118 787.105 25.566V25.846C787.105 26.294 787.208 26.6907 787.413 27.036C787.619 27.3813 787.908 27.6473 788.281 27.834C788.655 28.0207 789.084 28.114 789.569 28.114C789.989 28.114 790.367 28.0487 790.703 27.918C791.039 27.7873 791.338 27.582 791.599 27.302L792.537 28.38C792.201 28.772 791.777 29.0753 791.263 29.29C790.759 29.4953 790.181 29.598 789.527 29.598ZM796.238 29.5L793.494 22.024H795.146L797.498 28.618H796.714L799.178 22.024H800.648L803.042 28.618H802.272L804.694 22.024H806.248L803.49 29.5H801.81L799.626 23.662H800.144L797.918 29.5H796.238ZM809.665 29.598C809.04 29.598 808.438 29.5187 807.859 29.36C807.29 29.192 806.837 28.9913 806.501 28.758L807.173 27.428C807.509 27.6427 807.91 27.82 808.377 27.96C808.844 28.1 809.31 28.17 809.777 28.17C810.328 28.17 810.724 28.0953 810.967 27.946C811.219 27.7967 811.345 27.596 811.345 27.344C811.345 27.1387 811.261 26.9847 811.093 26.882C810.925 26.77 810.706 26.686 810.435 26.63C810.164 26.574 809.861 26.5227 809.525 26.476C809.198 26.4293 808.867 26.3687 808.531 26.294C808.204 26.21 807.906 26.0933 807.635 25.944C807.364 25.7853 807.145 25.5753 806.977 25.314C806.809 25.0527 806.725 24.7073 806.725 24.278C806.725 23.802 806.86 23.3913 807.131 23.046C807.402 22.6913 807.78 22.4207 808.265 22.234C808.76 22.038 809.343 21.94 810.015 21.94C810.519 21.94 811.028 21.996 811.541 22.108C812.054 22.22 812.479 22.3787 812.815 22.584L812.143 23.914C811.788 23.6993 811.429 23.5547 811.065 23.48C810.71 23.396 810.356 23.354 810.001 23.354C809.469 23.354 809.072 23.4333 808.811 23.592C808.559 23.7507 808.433 23.9513 808.433 24.194C808.433 24.418 808.517 24.586 808.685 24.698C808.853 24.81 809.072 24.8987 809.343 24.964C809.614 25.0293 809.912 25.0853 810.239 25.132C810.575 25.1693 810.906 25.23 811.233 25.314C811.56 25.398 811.858 25.5147 812.129 25.664C812.409 25.804 812.633 26.0047 812.801 26.266C812.969 26.5273 813.053 26.868 813.053 27.288C813.053 27.7547 812.913 28.1607 812.633 28.506C812.362 28.8513 811.975 29.122 811.471 29.318C810.967 29.5047 810.365 29.598 809.665 29.598Z" fill="white"/>
</svg>
